<?xml version="1.0" encoding="utf-8"?>
<!-- Generator: Adobe Illustrator 20.1.0, SVG Export Plug-In . SVG Version: 6.00 Build 0)  -->
<svg version="1.1" id="Layer_1" xmlns="http://www.w3.org/2000/svg" xmlns:xlink="http://www.w3.org/1999/xlink" x="0px" y="0px"
	 viewBox="0 0 382 361" style="enable-background:new 0 0 382 361;" xml:space="preserve">
<style type="text/css">
	.st0{fill:#FFFFFF;}
</style>
<path class="st0" d="M255.7,6.6H122.3C62.8,6.7,14.6,54.9,14.5,114.4v133.5c0.1,59.5,48.3,107.7,107.7,107.7h133.5
	c59.5-0.1,107.7-48.3,107.7-107.7l0-133.5C363.4,54.9,315.2,6.7,255.7,6.6z M333.5,247.8c0,42.9-34.8,77.7-77.8,77.8H122.3
	c-42.9,0-77.7-34.8-77.8-77.8V114.4c0-42.9,34.8-77.7,77.8-77.8h133.5c42.9,0,77.7,34.8,77.8,77.8V247.8z"/>
<path class="st0" d="M305.7,86.1c0,11.8-9.5,21.4-21.4,21.5h0v0c-11.8,0-21.4-9.6-21.4-21.4c0-11.8,9.6-21.4,21.4-21.4
	C296.1,64.7,305.7,74.3,305.7,86.1z"/>
<path class="st0" d="M189,94.4c-47.9,0-86.7,38.8-86.7,86.7s38.8,86.7,86.7,86.7c47.9-0.1,86.6-38.8,86.7-86.7
	C275.7,133.2,236.9,94.4,189,94.4z M189,237.8c-31.3,0-56.7-25.4-56.7-56.7s25.4-56.7,56.7-56.7c31.3,0,56.7,25.4,56.7,56.7
	C245.7,212.4,220.3,237.8,189,237.8z"/>
</svg>
