<?xml version="1.0" encoding="utf-8"?>
<!-- Generator: Adobe Illustrator 20.1.0, SVG Export Plug-In . SVG Version: 6.00 Build 0)  -->
<svg version="1.1" id="Capa_1" xmlns="http://www.w3.org/2000/svg" xmlns:xlink="http://www.w3.org/1999/xlink" x="0px" y="0px"
	 viewBox="0 0 736 706" style="enable-background:new 0 0 736 706;" xml:space="preserve">
<style type="text/css">
	.st0{fill:#FFFFFF;}
</style>
<g>
	<g>
		<path id="LinkedIn__x28_alt_x29_" class="st0" d="M412.1,312.1h1v-1.4C412.7,311.2,412.4,311.7,412.1,312.1z M412.1,312.1h1v-1.4
			C412.7,311.2,412.4,311.7,412.1,312.1z M412.1,312.1h1v-1.4C412.7,311.2,412.4,311.7,412.1,312.1z M412.1,312.1h1v-1.4
			C412.7,311.2,412.4,311.7,412.1,312.1z M412.1,312.1h1v-1.4C412.7,311.2,412.4,311.7,412.1,312.1z M412.1,312.1h1v-1.4
			C412.7,311.2,412.4,311.7,412.1,312.1z M412.1,312.1h1v-1.4C412.7,311.2,412.4,311.7,412.1,312.1z M412.1,312.1h1v-1.4
			C412.7,311.2,412.4,311.7,412.1,312.1z M412.1,312.1h1v-1.4C412.7,311.2,412.4,311.7,412.1,312.1z"/>
		<rect x="35" y="248" class="st0" width="148.1" height="442.4"/>
		<path class="st0" d="M546.4,237.4c-78.6,0-113.8,43-133.4,73.1v-62.7H265c1.9,41.5,0,442.5,0,442.5h148.1V443.2
			c0-13.2,0.9-26.4,4.9-35.8c10.6-26.4,34.9-53.8,75.9-53.8c53.6,0,75,40.6,75,100.1v236.7h148V436.6
			C716.9,300.6,643.8,237.4,546.4,237.4z M413.1,312.1h-1c0.3-0.4,0.6-0.9,1-1.4V312.1z"/>
		<path class="st0" d="M192.9,111c-0.1,42.6-32.2,76.5-83.8,76.5h-1c-49.7,0-81.8-34-81.8-76.5c0-43.4,33.1-76.4,83.8-76.4
			C160.7,34.6,191.9,67.6,192.9,111z"/>
	</g>
</g>
</svg>
