<?xml version="1.0" encoding="utf-8"?>
<!-- Generator: Adobe Illustrator 20.1.0, SVG Export Plug-In . SVG Version: 6.00 Build 0)  -->
<svg version="1.1" id="Capa_1" xmlns="http://www.w3.org/2000/svg" xmlns:xlink="http://www.w3.org/1999/xlink" x="0px" y="0px"
	 viewBox="0 0 566.9 566.9" style="enable-background:new 0 0 566.9 566.9;" xml:space="preserve">
<style type="text/css">
	.st0{fill:none;stroke:#9B0094;stroke-width:26;stroke-miterlimit:10;}
	.st1{fill:#9B0094;}
</style>
<rect x="12.8" y="12.8" class="st0" width="541.3" height="541.3"/>
<path class="st1" d="M308.9,260.2v182.9c0,55.5-32.5,80.7-80,80.7c-42.9,0-67.7-22.2-80.4-48.9l43.6-26.4
	c8.4,14.9,16.1,27.6,34.5,27.6c17.6,0,28.7-6.9,28.7-33.7V260.2H308.9z"/>
<path class="st1" d="M524.1,449.1c0.1,48.3-37.8,74.8-88.7,74.8c-49.7,0-81.9-23.7-97.6-54.8l43.5-25.3
	c11.5,18.7,26.4,32.5,52.8,32.5c22.2,0,36.4-11.1,36.4-26.4c0-18.4-14.6-24.9-39-35.6l-13.4-5.7c-38.7-16.5-64.3-37.1-64.3-80.7
	c0-40.2,30.6-70.8,78.4-70.8c34.1,0,58.5,11.9,76.2,42.9l-41.7,26.8c-9.2-16.5-19.1-23-34.5-23c-15.7,0-25.6,10-25.6,23
	c0,16.1,10,22.6,32.9,32.5l13.4,5.7C498.4,384.5,524.1,404.4,524.1,449.1z"/>
</svg>
