<?xml version="1.0" encoding="utf-8"?>
<!-- Generator: Adobe Illustrator 20.1.0, SVG Export Plug-In . SVG Version: 6.00 Build 0)  -->
<svg version="1.1"
	 id="svg4776" inkscape:version="0.48.5 r10040" sodipodi:docname="WWW Icon White on Grey.svg" xmlns:cc="http://creativecommons.org/ns#" xmlns:dc="http://purl.org/dc/elements/1.1/" xmlns:inkscape="http://www.inkscape.org/namespaces/inkscape" xmlns:rdf="http://www.w3.org/1999/02/22-rdf-syntax-ns#" xmlns:sodipodi="http://sodipodi.sourceforge.net/DTD/sodipodi-0.dtd" xmlns:svg="http://www.w3.org/2000/svg"
	 xmlns="http://www.w3.org/2000/svg" xmlns:xlink="http://www.w3.org/1999/xlink" x="0px" y="0px" viewBox="0 0 400.8 406.3"
	 style="enable-background:new 0 0 400.8 406.3;" xml:space="preserve">
<style type="text/css">
	.st0{fill:#FFFFFF;}
</style>
<g>
	<path class="st0" d="M16.1,224.7c0.5,1.3,1,2.7,1.6,4.2c0.6,1.5,1.4,2.9,2.4,4c1,1.2,2.3,2,3.9,2.7c1.7,0.7,3.7,1,6.2,1
		c3.1,0,5.5-0.6,7.4-1.7c1.9-1.1,3.2-2.3,3.9-3.6c0.7-1.4,1.6-3.4,2.7-6.3l13.2-37.2l13.1,37.4c1.1,2.8,2,4.8,2.7,6.1
		c0.7,1.3,2,2.6,3.8,3.7c1.9,1.1,4.3,1.6,7.4,1.6c3.3,0,5.8-0.5,7.6-1.7c1.8-1.1,3.1-2.4,3.8-3.8c0.7-1.4,1.5-3.6,2.5-6.5l14.8-42.4
		c0.9-2.7,1.4-4.6,1.4-5.8c0-1.9-1-3.5-2.9-4.8c-1.9-1.3-4.2-1.9-6.9-1.9c-2.7,0-4.8,0.5-6.3,1.5s-2.4,2.1-3,3.3
		c-0.5,1.2-1.1,2.8-1.7,4.6l-10.4,36.1l-11.7-33.8c-1.1-2.8-2-4.9-2.7-6.2c-0.7-1.3-2-2.6-3.9-3.8c-1.9-1.2-4.5-1.7-7.9-1.7
		c-3.3,0-5.9,0.5-7.9,1.7c-2,1.1-3.4,2.5-4.2,3.9c-0.8,1.5-1.7,3.5-2.7,6.1L31,215.2l-10.5-36.3c-0.8-2.8-1.9-5-3.2-6.6
		c-1.3-1.7-3.8-2.5-7.6-2.5c-2.8,0-5.1,0.6-6.9,1.9c-1.9,1.3-2.8,2.9-2.8,4.8c0,1.4,0.4,3.3,1.3,5.8L16.1,224.7z"/>
	<path class="st0" d="M247.5,169.7c-2.7,0-4.8,0.5-6.3,1.5s-2.4,2.1-3,3.3c-0.6,1.2-1.1,2.8-1.7,4.6l-10.4,36.1l-11.7-33.8
		c-1.1-2.8-2-4.9-2.7-6.2s-2-2.6-3.8-3.8c-1.9-1.2-4.5-1.7-7.9-1.7c-3.3,0-6,0.5-7.9,1.7c-2,1.1-3.3,2.5-4.2,3.9s-1.7,3.5-2.7,6.1
		l-11.6,33.8l-10.5-36.3c-0.8-2.8-1.8-5-3.1-6.6c-1.3-1.7-3.9-2.5-7.7-2.5c-2.8,0-5.1,0.6-7,1.9c-1.9,1.3-2.8,2.9-2.8,4.8
		c0,1.4,0.5,3.3,1.4,5.8l14.8,42.4c0.5,1.3,1,2.7,1.6,4.2c0.6,1.5,1.3,2.9,2.3,4c1,1.2,2.3,2,3.9,2.7c1.6,0.7,3.7,1,6.2,1
		c3.1,0,5.6-0.6,7.4-1.7c1.9-1.1,3.1-2.3,3.8-3.6c0.7-1.4,1.6-3.4,2.7-6.3l13.2-37.2l13.1,37.4c1.1,2.8,2,4.8,2.7,6.1
		c0.7,1.3,2,2.6,3.8,3.7c1.9,1.1,4.3,1.6,7.4,1.6c3.3,0,5.8-0.5,7.6-1.7c1.8-1.1,3.1-2.4,3.8-3.8c0.7-1.4,1.5-3.6,2.5-6.5l14.8-42.4
		c0.9-2.7,1.4-4.6,1.4-5.8c0-1.9-1-3.5-2.8-4.8C252.5,170.4,250.3,169.7,247.5,169.7z"/>
	<path class="st0" d="M397.3,171.6c-1.9-1.3-4.2-1.9-7-1.9c-2.7,0-4.8,0.5-6.3,1.5s-2.4,2.1-3,3.3c-0.5,1.2-1.1,2.8-1.7,4.6
		l-10.4,36.1l-11.7-33.8c-1.1-2.8-2-4.9-2.7-6.2c-0.7-1.3-2-2.6-3.8-3.8c-1.9-1.2-4.5-1.7-7.9-1.7c-3.3,0-6,0.5-7.9,1.7
		c-2,1.1-3.4,2.5-4.2,3.9c-0.8,1.5-1.7,3.5-2.7,6.1l-11.6,33.8l-10.4-36.3c-0.8-2.8-1.9-5-3.2-6.6c-1.3-1.7-3.9-2.5-7.7-2.5
		c-2.8,0-5.1,0.6-6.9,1.9c-1.9,1.3-2.8,2.9-2.8,4.8c0,1.4,0.5,3.3,1.4,5.8l14.8,42.4c0.4,1.3,1,2.7,1.5,4.2c0.6,1.5,1.3,2.9,2.3,4
		c1,1.2,2.3,2,3.9,2.7c1.6,0.7,3.7,1,6.2,1c3.1,0,5.6-0.6,7.4-1.7c1.9-1.1,3.1-2.3,3.9-3.6c0.7-1.4,1.7-3.4,2.8-6.3l13.2-37.2
		l13.1,37.4c1.1,2.8,2,4.8,2.7,6.1c0.7,1.3,2,2.6,3.8,3.7c1.9,1.1,4.3,1.6,7.4,1.6c3.3,0,5.8-0.5,7.6-1.7c1.8-1.1,3.1-2.4,3.8-3.8
		c0.7-1.4,1.5-3.6,2.5-6.5l14.8-42.4c0.9-2.7,1.4-4.6,1.4-5.8C400.1,174.5,399.2,172.9,397.3,171.6z"/>
	<path class="st0" d="M41.9,119.3h56.8c-2.5,7.7-4.5,15.6-6.2,23.6h28.8c2-8,4.4-16,7.3-23.6h54.8v23.6h27.8v-23.6h59.2
		c3.2,7.7,5.9,15.6,8.1,23.6h28.8c-1.9-8-4.2-15.9-6.9-23.6h59c4.2,7.6,7.9,15.4,11,23.6h29.5C373.3,60.1,293.9,0,200.6,0
		S27.9,60.1,1.4,142.9h29.5C34,134.7,37.7,126.8,41.9,119.3z M339.9,91.5h-51.5c-11.5-22.3-26.8-42.4-45.9-58.8
		C281.4,41.6,315.4,62.6,339.9,91.5z M211.1,43.7c18.3,12.5,33.1,29.1,44.8,47.8h-44.8V43.7z M183.4,43.8v47.6h-41.9
		C152.3,72.7,166,56.2,183.4,43.8z M150.6,34.7c-17.2,16-30.8,35.3-40.9,56.7H61.3C84.1,64.6,115.1,44.6,150.6,34.7z"/>
	<path class="st0" d="M371.5,259.8c-2.8,8-6.1,15.7-10,23.1h-59.5c2.5-7.6,4.6-15.3,6.4-23.1H280c-2,7.9-4.4,15.6-7.3,23.1h-61.6
		v-23.1h-27.8v23.1h-56.2c-2.5-7.5-4.8-15.2-6.6-23.1H92c1.6,7.8,3.5,15.6,5.8,23.1h-58c-3.9-7.4-7.3-15.1-10.1-23.1H0.4
		c25.2,84.7,105.6,146.5,200.2,146.5s175-61.9,200.2-146.5H371.5z M58,310.7h49.8c10.2,23.5,23.6,44.5,41,60.5
		C112.2,360.6,80.7,339.2,58,310.7z M183.4,362.6c-18-11.4-33.1-29.7-44.7-51.9h44.7V362.6z M211.1,361.3v-50.6h47.7
		C246.8,331,231,348.5,211.1,361.3z M241.2,374c21.2-17.1,37.7-38.9,49.7-63.3h52.4C318.1,342.1,282.4,364.9,241.2,374z"/>
</g>
</svg>
